<svg width="586" height="586" viewBox="0 0 586 586" fill="none" xmlns="http://www.w3.org/2000/svg">
<path d="M357.396 535.335C358.172 535.377 358.938 535.45 359.725 535.45H537.115C557.865 535.45 574.742 518.562 574.742 497.822V86.602C574.742 65.859 557.865 48.974 537.115 48.974H359.725C358.944 48.974 358.172 49.05 357.396 49.087V0L11.176 46.206V538.517L357.396 585.918V535.335ZM357.396 70.707C358.162 70.599 358.928 70.476 359.725 70.476H537.115C546.008 70.476 553.24 77.712 553.24 86.602V497.822C553.24 506.71 546.008 513.949 537.115 513.949H359.725C358.933 513.949 358.162 513.822 357.396 513.706V70.707ZM98.12 321.895C105.403 322.02 113.518 320.477 118.33 318.535L122.044 338.672C117.54 340.918 107.461 343.175 94.495 342.829C58.466 341.858 40.376 317.821 40.376 286.615C40.376 249.25 65.171 227.793 96.849 226.948C109.375 226.621 118.981 229.072 123.341 231.319L118.33 251.82C113.364 249.71 106.521 247.812 97.962 247.945C79.04 248.274 64.565 260.513 64.565 285.164C64.56 307.353 76.87 321.536 98.12 321.895ZM165.611 344.729C152.781 344.381 140.257 340.644 134.055 336.938L139.113 315.615C145.842 319.301 156.265 323.058 167.123 323.248C178.932 323.447 185.221 318.523 185.221 310.881C185.221 303.594 179.783 299.395 166.113 294.313C147.486 287.584 135.512 277.033 135.512 260.4C135.512 240.873 151.281 225.526 177.916 224.82C190.861 224.481 200.51 227.025 207.439 230.008L201.536 251.644C196.888 249.439 188.646 246.269 177.402 246.454C166.284 246.633 160.932 251.885 160.932 257.887C160.932 265.268 167.284 268.494 181.993 274.099C202.413 281.701 212.153 292.58 212.153 309.273C212.158 329.106 197.057 345.568 165.611 344.729ZM259.935 347.238C246 346.869 232.418 342.964 225.688 339.091L231.177 316.906C238.47 320.739 249.791 324.665 261.568 324.865C274.39 325.086 281.222 319.952 281.222 311.998C281.222 304.396 275.309 300.014 260.465 294.713C240.266 287.691 227.268 276.72 227.268 259.4C227.268 239.077 244.383 223.074 273.287 222.31C287.353 221.935 297.82 224.568 305.374 227.675L298.96 250.235C293.892 247.946 284.936 244.65 272.734 244.849C260.67 245.049 254.854 250.52 254.854 256.778C254.854 264.464 261.751 267.823 277.709 273.66C299.903 281.589 310.487 292.928 310.487 310.324C310.487 331.007 294.078 348.151 259.935 347.238Z" fill="white"/>
<path d="M377.637 309.599C377.637 315.941 376.699 322.261 375.759 328.603C374.814 334.955 373.868 341.505 373.868 347.846C373.868 371.533 388.419 380.006 407.906 380.006H412.83V367.081H408.609C395.469 367.081 390.068 359.805 390.068 346.682C390.068 341.044 390.777 335.637 391.712 329.769C392.651 324.152 393.354 318.293 393.354 311.941C393.595 296.928 387.019 288.943 376.458 286.358V285.907C387.02 283.086 393.596 275.563 393.354 260.55C393.354 254.23 392.652 248.592 391.712 242.726C390.777 237.088 390.068 231.458 390.068 226.062C390.068 213.393 394.756 205.894 408.609 205.894H412.83V192.972H407.906C387.957 192.972 373.868 202.127 373.868 223.726C373.868 230.298 374.813 236.637 375.759 243.212C376.698 249.763 377.637 256.322 377.637 262.905C377.637 271.115 375.291 280.268 358.635 280.268V292.226C375.291 292.225 377.637 302.313 377.637 309.599Z" fill="#EC5242"/>
<path d="M513.32 347.846C513.32 341.505 512.38 334.954 511.434 328.603C510.499 322.261 509.554 315.941 509.554 309.599C509.554 302.314 511.911 292.225 528.569 292.225V280.267C511.907 280.267 509.554 271.114 509.554 262.904C509.554 256.318 510.499 249.762 511.434 243.211C512.379 236.636 513.32 230.297 513.32 223.725C513.32 202.126 498.998 192.971 479.056 192.971H474.363V205.893H478.589C492.205 206.113 497.131 213.392 497.131 226.061C497.131 231.457 496.181 237.087 495.487 242.725C494.531 248.597 493.596 254.235 493.596 260.549C493.596 275.563 500.169 283.08 510.499 285.906V286.357C500.169 288.937 493.596 296.927 493.596 311.94C493.596 318.297 494.531 324.151 495.487 329.768C496.18 335.636 497.131 341.043 497.131 346.681C497.131 359.804 491.487 366.86 478.359 367.08H474.364V380.005H479.294C498.536 380.006 513.32 371.532 513.32 347.846Z" fill="#EC5242"/>
</svg>
