<svg width="512" height="512" viewBox="0 0 512 512" fill="none" xmlns="http://www.w3.org/2000/svg">
<rect width="512" height="512" fill="#E5E5E5"/>
<g clip-path="url(#clip0_0_1)">
<path d="M437.333 213.333C443.221 213.333 448 208.554 448 202.666V74.666C448 45.269 424.085 21.333 394.667 21.333H53.333C23.915 21.333 0 45.269 0 74.667V437.334C0 466.731 23.915 490.667 53.333 490.667H394.666C424.085 490.667 447.999 466.731 447.999 437.334V373.334C447.999 367.446 443.22 362.667 437.332 362.667C431.444 362.667 426.665 367.446 426.665 373.334V437.334C426.665 454.977 412.308 469.334 394.665 469.334H53.333C35.69 469.334 21.333 454.977 21.333 437.334V128H426.666V202.667C426.667 208.555 431.445 213.333 437.333 213.333ZM21.333 106.667V74.667C21.333 57.024 35.69 42.667 53.333 42.667H394.666C412.309 42.667 426.666 57.024 426.666 74.667V106.667H21.333Z" fill="white"/>
<path d="M53.333 85.334C59.2242 85.334 64 80.5582 64 74.667C64 68.7758 59.2242 64 53.333 64C47.4418 64 42.666 68.7758 42.666 74.667C42.666 80.5582 47.4418 85.334 53.333 85.334Z" fill="#EC5242"/>
<path d="M96 85.334C101.891 85.334 106.667 80.5582 106.667 74.667C106.667 68.7758 101.891 64 96 64C90.1088 64 85.333 68.7758 85.333 74.667C85.333 80.5582 90.1088 85.334 96 85.334Z" fill="#EC5242"/>
<path d="M138.667 85.334C144.558 85.334 149.334 80.5582 149.334 74.667C149.334 68.7758 144.558 64 138.667 64C132.776 64 128 68.7758 128 74.667C128 80.5582 132.776 85.334 138.667 85.334Z" fill="#EC5242"/>
<path d="M224 234.667C218.112 234.667 213.333 239.446 213.333 245.334V277.334H170.666V245.334C170.666 239.446 165.887 234.667 159.999 234.667C154.111 234.667 149.332 239.446 149.332 245.334V330.667C149.332 336.555 154.111 341.334 159.999 341.334C165.887 341.334 170.666 336.555 170.666 330.667V298.667H213.333V330.667C213.333 336.555 218.112 341.334 224 341.334C229.888 341.334 234.667 336.555 234.667 330.667V245.334C234.667 239.445 229.888 234.667 224 234.667Z" fill="#EC5242"/>
<path d="M309.333 234.667H266.666C260.778 234.667 255.999 239.446 255.999 245.334C255.999 251.222 260.779 256 266.667 256H277.334V330.667C277.334 336.555 282.113 341.334 288.001 341.334C293.889 341.334 298.668 336.555 298.668 330.667V256H309.335C315.223 256 320.002 251.221 320.002 245.333C320.002 239.445 315.221 234.667 309.333 234.667Z" fill="#EC5242"/>
<path d="M420.075 235.499C416.107 233.814 411.52 234.731 408.448 237.803L384 262.251L359.552 237.782C356.501 234.753 351.893 233.835 347.925 235.478C343.936 237.121 341.333 241.025 341.333 245.334V330.667C341.333 336.555 346.112 341.334 352 341.334C357.888 341.334 362.667 336.555 362.667 330.667V271.083L376.47 284.864C380.63 289.024 387.393 289.024 391.553 284.864L405.334 271.083V330.667C405.334 336.555 410.113 341.334 416.001 341.334C421.889 341.334 426.668 336.555 426.668 330.689V245.356C426.667 241.045 424.064 237.141 420.075 235.499Z" fill="#EC5242"/>
<path d="M501.333 320H469.333V245.333C469.333 239.445 464.554 234.666 458.666 234.666C452.778 234.666 448 239.445 448 245.333V330.666C448 336.554 452.779 341.333 458.667 341.333H501.334C507.222 341.333 512.001 336.554 512.001 330.666C512.001 324.778 507.221 320 501.333 320Z" fill="#EC5242"/>
</g>
<defs>
<clipPath id="clip0_0_1">
<rect width="512" height="512" fill="white"/>
</clipPath>
</defs>
</svg>
