<svg width="157" height="200" viewBox="0 0 157 200" fill="none" xmlns="http://www.w3.org/2000/svg">
<path d="M0 141.379V193.103C0 196.583 4.25645 200 8.59313 200H148.407C152.744 200 157 196.583 157 193.103V141.379H0ZM71.5955 177.814C71.5955 179.448 71.292 180.824 70.6884 181.938C70.0813 183.052 69.2719 183.948 68.2566 184.624C67.2379 185.3 66.0691 185.772 64.7503 186.038C63.4315 186.303 62.0673 186.438 60.6718 186.438C59.9705 186.438 59.1506 186.366 58.2156 186.224C57.2806 186.083 56.3072 185.866 55.3059 185.566C54.3046 185.266 53.3416 184.928 52.4206 184.552C51.496 184.176 50.718 183.752 50.083 183.279L52.5148 179.462C52.8322 179.679 53.2858 179.91 53.8754 180.145C54.465 180.379 55.107 180.6 55.8083 180.803C56.506 181.01 57.2387 181.186 58.0028 181.345C58.7668 181.503 59.4821 181.579 60.1484 181.579C61.8301 181.579 63.1768 181.255 64.1781 180.614C65.1794 179.972 65.7097 178.876 65.776 177.338V150.748H71.5955V177.814ZM99.2868 180.338C98.7635 181.517 98.0238 182.555 97.0679 183.448C96.1119 184.341 94.9362 185.059 93.5371 185.593C92.1381 186.128 90.5471 186.393 88.7678 186.393C88.0037 186.393 87.2187 186.352 86.4058 186.276C85.5929 186.2 84.773 186.062 83.9496 185.876C83.1228 185.686 82.3343 185.428 81.5877 185.097C80.841 184.766 80.1956 184.366 79.6548 183.893L80.6561 179.838C81.0992 180.09 81.6644 180.334 82.3482 180.569C83.0321 180.803 83.7368 181.024 84.4695 181.228C85.1987 181.434 85.9313 181.597 86.664 181.724C87.3932 181.848 88.077 181.914 88.7155 181.914C90.6553 181.914 92.1416 181.466 93.1743 180.569C94.207 179.672 94.7233 178.345 94.7233 176.586C94.7233 175.517 94.357 174.607 93.6278 173.852C92.8952 173.097 91.9811 172.414 90.8856 171.8C89.79 171.186 88.6038 170.576 87.3304 169.962C86.0569 169.348 84.8637 168.624 83.7543 167.793C82.6413 166.962 81.7168 165.979 80.9876 164.848C80.2549 163.717 79.8921 162.303 79.8921 160.607C79.8921 159.069 80.1782 157.7 80.7503 156.507C81.3225 155.314 82.0936 154.297 83.0635 153.466C84.0334 152.634 85.1638 151.997 86.4512 151.555C87.7386 151.114 89.0993 150.897 90.5297 150.897C91.9915 150.897 93.4708 151.031 94.9641 151.297C96.4573 151.562 97.6645 151.997 98.589 152.593C98.3971 153 98.1739 153.448 97.9227 153.938C97.668 154.428 97.4272 154.879 97.2074 155.303C96.9841 155.728 96.7923 156.083 96.6353 156.366C96.4748 156.648 96.3806 156.807 96.3492 156.838C96.1573 156.745 95.9444 156.621 95.7037 156.462C95.463 156.303 95.1211 156.148 94.678 155.99C94.2314 155.831 93.6418 155.724 92.9126 155.659C92.1799 155.593 91.2414 155.61 90.0971 155.707C89.4586 155.772 88.8585 155.948 88.2828 156.248C87.7072 156.548 87.1978 156.914 86.7547 157.355C86.3081 157.797 85.9558 158.29 85.7046 158.841C85.4499 159.39 85.3243 159.921 85.3243 160.421C85.3243 161.676 85.6871 162.69 86.4198 163.462C87.149 164.234 88.0561 164.907 89.1376 165.49C90.2192 166.072 91.3914 166.638 92.6684 167.186C93.9383 167.734 95.1246 168.407 96.2236 169.19C97.3226 169.972 98.2332 170.959 98.9658 172.134C99.695 173.314 100.061 174.828 100.061 176.683C100.075 177.941 99.8101 179.159 99.2868 180.338Z" fill="#EC5242"/>
<path d="M157 134.483V48.2C157 45.5586 156.679 43.6034 155.081 42.0207L114.481 1.89655C113.263 0.693103 111.575 0 109.848 0H8.59313C4.45531 0 0 3.15862 0 10.0897V134.483H157ZM80.2444 110.345C80.2444 112.248 78.6849 113.793 76.7556 113.793C74.8262 113.793 73.2667 112.248 73.2667 110.345V100C73.2667 98.0966 74.8262 96.5517 76.7556 96.5517C78.6849 96.5517 80.2444 98.0966 80.2444 100V110.345ZM108.156 11.6931C108.156 10.1138 110.085 9.32414 111.215 10.4414L146.436 45.2517C147.566 46.369 146.767 48.2759 145.169 48.2759H108.156V11.6931ZM104.667 79.3103V65.5172C104.667 63.6172 103.104 62.069 101.178 62.069C99.2484 62.069 97.6889 60.5241 97.6889 58.6207C97.6889 56.7172 99.2484 55.1724 101.178 55.1724C106.948 55.1724 111.644 59.8138 111.644 65.5172V79.3103C111.644 83.1138 114.774 86.2069 118.622 86.2069C120.552 86.2069 122.111 87.7517 122.111 89.6552C122.111 91.5586 120.552 93.1034 118.622 93.1034C114.774 93.1034 111.644 96.1965 111.644 100V113.793C111.644 119.497 106.948 124.138 101.178 124.138C99.2484 124.138 97.6889 122.593 97.6889 120.69C97.6889 118.786 99.2484 117.241 101.178 117.241C103.104 117.241 104.667 115.693 104.667 113.793V100C104.667 95.8621 106.558 92.1862 109.488 89.6552C106.558 87.1241 104.667 83.4483 104.667 79.3103ZM76.7556 72.4138C79.6444 72.4138 81.9889 74.731 81.9889 77.5862C81.9889 80.4414 79.6444 82.7586 76.7556 82.7586C73.8668 82.7586 71.5222 80.4414 71.5222 77.5862C71.5222 74.731 73.8668 72.4138 76.7556 72.4138ZM34.8889 86.2069C38.7371 86.2069 41.8667 83.1138 41.8667 79.3103V65.5172C41.8667 59.8138 46.5627 55.1724 52.3333 55.1724C54.2627 55.1724 55.8222 56.7172 55.8222 58.6207C55.8222 60.5241 54.2627 62.069 52.3333 62.069C50.4075 62.069 48.8444 63.6172 48.8444 65.5172V79.3103C48.8444 83.4483 46.9535 87.1241 44.0228 89.6552C46.9535 92.1862 48.8444 95.8621 48.8444 100V113.793C48.8444 115.693 50.4075 117.241 52.3333 117.241C54.2627 117.241 55.8222 118.786 55.8222 120.69C55.8222 122.593 54.2627 124.138 52.3333 124.138C46.5627 124.138 41.8667 119.497 41.8667 113.793V100C41.8667 96.1965 38.7371 93.1034 34.8889 93.1034C32.9595 93.1034 31.4 91.5586 31.4 89.6552C31.4 87.7517 32.9595 86.2069 34.8889 86.2069Z" fill="white"/>
</svg>
