<svg width="23" height="23" viewBox="0 0 23 23" fill="none" xmlns="http://www.w3.org/2000/svg">
<path d="M23 11.5C23 5.15886 17.8409 0 11.5 0C10.4327 0 9.40388 0.157238 8.42252 0.430797L8.3996 0.415588C8.39426 0.4233 8.3904 0.431655 8.38498 0.440223C3.55499 1.8031 0 6.23917 0 11.5C0 17.8412 5.15885 23 11.5 23C12.5679 23 13.5961 22.8427 14.5775 22.5692L14.6004 22.5853C14.6057 22.5776 14.6105 22.5692 14.6149 22.5606C19.4448 21.1967 23 16.7599 23 11.5ZM1.14458 12.0589H5.2891C5.33046 13.2941 5.46841 14.5092 5.71841 15.6882H2.00639C1.50961 14.5674 1.21292 13.3438 1.14458 12.0589ZM21.8553 10.9417H17.7116C17.6693 9.70592 17.5322 8.49065 17.2814 7.31156H20.9936C21.4904 8.43259 21.7871 9.65619 21.8553 10.9417ZM16.5952 10.9417H12.0581V7.31156H16.1413C16.405 8.48851 16.5515 9.70378 16.5952 10.9417ZM12.0589 6.19611V1.14458C12.6009 1.17371 13.133 1.23348 13.6506 1.3423C14.6149 2.83885 15.3579 4.46885 15.8546 6.19611H12.0589ZM10.9418 6.19611H7.06006C7.51785 4.49949 8.207 2.8894 9.11014 1.40443C9.70271 1.26411 10.3145 1.17821 10.9418 1.14458V6.19611ZM10.9418 7.31177V10.942H6.39234C6.41612 9.70679 6.54486 8.49081 6.78866 7.31177H10.9418ZM5.27689 10.9417H1.14394C1.21227 9.65596 1.50896 8.43172 2.00575 7.31156H5.65734C5.42728 8.49469 5.30003 9.70822 5.27689 10.9417ZM6.40476 12.0589H10.9419V15.6882H6.85784C6.59478 14.5113 6.44846 13.2962 6.40476 12.0589ZM10.9418 16.8036V21.8552C10.3998 21.826 9.86684 21.7663 9.35008 21.6575C8.38564 20.1609 7.64274 18.5309 7.14511 16.8036C7.14533 16.8036 10.9418 16.8036 10.9418 16.8036ZM12.0589 16.8036H15.9397C15.4813 18.5003 14.7928 20.1095 13.8896 21.5953C13.2971 21.7365 12.6852 21.8216 12.0581 21.8552V16.8036H12.0589ZM12.0589 15.6882V12.0589H16.6083C16.5846 13.2932 16.4558 14.5092 16.2111 15.6882H12.0589ZM17.7229 12.0589H21.8561C21.7877 13.3447 21.491 14.5683 20.9942 15.6882H17.3427C17.5727 14.5053 17.7 13.2918 17.7229 12.0589ZM20.4109 6.19611H17.0076C16.5914 4.66508 16.0049 3.19852 15.2435 1.82538C17.4149 2.6679 19.2295 4.21886 20.4109 6.19611ZM7.54463 1.90292C6.83557 3.25679 6.29187 4.69657 5.91077 6.19547H2.58908C3.73279 4.28248 5.46562 2.76301 7.54463 1.90292ZM2.58908 16.8036H5.99304C6.40862 18.3347 6.99515 19.8013 7.75628 21.1744C5.58516 20.3319 3.77049 18.7809 2.58908 16.8036ZM15.4552 21.0971C16.1642 19.7432 16.7079 18.3034 17.089 16.8045H20.4109C19.267 18.7173 17.5344 20.2367 15.4552 21.0971Z" fill="#585858"/>
</svg>
