<svg width="789" height="482" viewBox="0 0 789 482" fill="none" xmlns="http://www.w3.org/2000/svg">
<g clip-path="url(#clip0_0_1)">
<path d="M389.69 480.609C387.02 480.609 384.527 479.9 382.21 478.658L358.523 464.643C354.961 462.691 356.742 461.982 357.812 461.627C362.619 460.031 363.51 459.675 368.497 456.838C369.032 456.482 369.745 456.66 370.278 457.014L388.445 467.836C389.157 468.191 390.048 468.191 390.581 467.836L461.645 426.854C462.357 426.499 462.715 425.789 462.715 424.903V343.116C462.715 342.228 462.357 341.52 461.645 341.164L390.581 300.36C389.869 300.004 388.979 300.004 388.445 300.36L317.381 341.164C316.669 341.518 316.312 342.406 316.312 343.115V424.901C316.312 425.612 316.669 426.498 317.381 426.854L336.795 438.031C347.303 443.352 353.893 437.143 353.893 430.934V350.211C353.893 349.148 354.783 348.082 356.03 348.082H365.113C366.182 348.082 367.25 348.97 367.25 350.211V430.934C367.25 444.949 359.591 453.111 346.234 453.111C342.138 453.111 338.933 453.111 329.848 448.674L311.148 438.031C306.517 435.37 303.668 430.401 303.668 425.079V343.293C303.668 337.971 306.517 333.002 311.148 330.342L382.21 289.36C386.664 286.876 392.72 286.876 397.172 289.36L468.235 330.342C472.865 333.002 475.716 337.971 475.716 343.293V425.079C475.716 430.401 472.865 435.37 468.235 438.031L397.172 479.013C394.856 480.078 392.185 480.609 389.692 480.609H389.69ZM411.598 424.37C380.431 424.37 374.018 410.177 374.018 398.114C374.018 397.048 374.909 395.984 376.156 395.984H385.417C386.485 395.984 387.376 396.694 387.376 397.759C388.801 407.161 392.897 411.774 411.776 411.774C426.737 411.774 433.15 408.403 433.15 400.419C433.15 395.806 431.367 392.437 408.036 390.13C388.623 388.177 376.512 383.921 376.512 368.486C376.512 354.115 388.624 345.599 408.927 345.599C431.723 345.599 442.945 353.406 444.37 370.435C444.37 370.97 444.192 371.501 443.836 372.033C443.478 372.388 442.945 372.743 442.41 372.743H433.149C432.258 372.743 431.367 372.033 431.19 371.146C429.053 361.389 423.531 358.195 408.927 358.195C392.541 358.195 390.581 363.873 390.581 368.13C390.581 373.275 392.897 374.872 414.982 377.71C436.889 380.55 447.22 384.63 447.22 399.887C447.041 415.499 434.218 424.37 411.598 424.37Z" fill="#EC5242"/>
<path d="M169.199 160.736C169.199 157.543 167.417 154.526 164.568 152.93L89.0522 109.642C87.804 108.931 86.3801 108.576 84.9562 108.398H84.2427C82.8188 108.398 81.3934 108.931 80.1467 109.642L4.63075 152.93C1.77987 154.526 0 157.542 0 160.736L0.178758 277.118C0.178758 278.714 1.06946 280.311 2.49336 281.021C3.9188 281.909 5.69868 281.909 6.9469 281.021L51.829 255.474C54.6783 253.877 56.4597 250.861 56.4597 247.668V193.202C56.4597 190.009 58.2396 186.993 61.0905 185.397L80.1467 174.396C81.5721 173.509 83.1748 173.153 84.7774 173.153C86.3801 173.153 87.9827 173.509 89.231 174.396L108.287 185.397C111.138 186.993 112.918 190.008 112.918 193.202V247.668C112.918 250.861 114.699 253.877 117.549 255.474L162.431 281.021C163.856 281.909 165.636 281.909 167.062 281.021C168.487 280.311 169.378 278.714 169.378 277.118L169.199 160.736ZM532.174 0.53304C530.75 -0.17768 528.969 -0.17768 527.721 0.53304C526.297 1.42029 525.406 2.83866 525.406 4.43509V119.754C525.406 120.818 524.873 121.882 523.804 122.593C522.736 123.124 521.666 123.124 520.598 122.593L501.719 111.771C500.335 110.986 498.77 110.573 497.178 110.573C495.584 110.573 494.019 110.986 492.635 111.771L417.119 155.236C414.27 156.833 412.488 159.849 412.488 163.042V249.796C412.488 252.989 414.27 256.006 417.119 257.603L492.635 301.069C494.019 301.855 495.584 302.268 497.178 302.268C498.77 302.268 500.335 301.855 501.719 301.069L577.235 257.603C580.085 256.006 581.866 252.99 581.866 249.796V33.5315C581.866 30.1606 580.085 27.1458 577.235 25.5478L532.176 0.53304H532.174ZM525.229 221.233C525.229 222.121 524.873 222.83 524.16 223.184L498.335 238.087C497.975 238.262 497.579 238.354 497.178 238.354C496.776 238.354 496.38 238.262 496.019 238.087L470.195 223.184C469.481 222.83 469.125 221.943 469.125 221.233V191.428C469.125 190.54 469.481 189.831 470.195 189.477L496.019 174.573C496.38 174.398 496.776 174.307 497.178 174.307C497.579 174.307 497.975 174.398 498.335 174.573L524.16 189.477C524.873 189.83 525.229 190.718 525.229 191.428V221.233ZM783.479 190.718C786.329 189.122 787.932 186.106 787.932 182.911V161.8C787.932 158.607 786.151 155.591 783.479 153.994L708.497 110.707C707.114 109.922 705.548 109.509 703.956 109.509C702.364 109.509 700.798 109.922 699.415 110.707L623.899 154.171C621.048 155.767 619.268 158.784 619.268 161.978V248.732C619.268 251.925 621.048 254.941 623.899 256.538L698.88 299.116C701.731 300.713 705.113 300.713 707.785 299.116L753.201 273.926C754.626 273.216 755.517 271.619 755.517 270.023C755.517 268.426 754.626 266.83 753.201 266.119L677.329 222.653C675.905 221.768 675.014 220.348 675.014 218.751V191.607C675.014 190.011 675.905 188.414 677.329 187.704L701.017 174.22C701.711 173.786 702.514 173.555 703.333 173.555C704.152 173.555 704.955 173.786 705.648 174.22L729.335 187.704C730.76 188.591 731.651 190.009 731.651 191.607V212.897C731.651 214.493 732.542 216.089 733.966 216.799C735.391 217.686 737.171 217.686 738.596 216.799L783.479 190.718Z" fill="white"/>
<path d="M702.799 186.638C703.062 186.465 703.372 186.373 703.689 186.373C704.005 186.373 704.315 186.465 704.579 186.638L719.006 194.977C719.54 195.33 719.896 195.862 719.896 196.573V213.25C719.896 213.959 719.54 214.492 719.006 214.846L704.579 223.184C704.315 223.358 704.005 223.45 703.689 223.45C703.372 223.45 703.062 223.358 702.799 223.184L688.372 214.846C687.837 214.492 687.481 213.959 687.481 213.25V196.573C687.481 195.862 687.837 195.33 688.372 194.977L702.799 186.638Z" fill="#EC5242"/>
<mask id="mask0_0_1" style="mask-type:alpha" maskUnits="userSpaceOnUse" x="206" y="109" width="169" height="192">
<path d="M295.474 111.062C294.091 110.277 292.525 109.864 290.933 109.864C289.341 109.864 287.775 110.277 286.392 111.062L211.41 154.169C208.56 155.766 206.957 158.782 206.957 161.975V248.376C206.957 251.569 208.738 254.585 211.41 256.181L286.392 299.293C287.775 300.077 289.341 300.49 290.933 300.49C292.525 300.49 294.091 300.077 295.474 299.293L370.457 256.181C373.306 254.585 374.911 251.569 374.911 248.376V161.977C374.911 158.784 373.128 155.767 370.457 154.171L295.474 111.062Z" fill="white"/>
</mask>
<g mask="url(#mask0_0_1)">
<path d="M295.474 111.062C294.091 110.277 292.525 109.864 290.933 109.864C289.341 109.864 287.775 110.277 286.392 111.062L211.41 154.169C208.56 155.766 206.957 158.782 206.957 161.975V248.376C206.957 251.569 208.738 254.585 211.41 256.181L286.392 299.293C287.775 300.077 289.341 300.49 290.933 300.49C292.525 300.49 294.091 300.077 295.474 299.293L370.457 256.181C373.306 254.585 374.911 251.569 374.911 248.376V161.977C374.911 158.784 373.128 155.767 370.457 154.171L295.474 111.062Z" fill="#EC5242"/>
<path d="M286.213 111.062L211.054 154.169C208.202 155.767 206.245 158.785 206.245 161.978V248.379C206.245 250.508 207.136 252.459 208.56 254.055L292.981 109.996C290.844 109.642 288.35 109.818 286.213 111.06V111.062ZM293.516 300.182C294.228 300.004 294.941 299.649 295.653 299.294L370.813 256.183C373.664 254.587 375.444 251.57 375.444 248.377V161.977C375.444 159.671 374.374 157.364 372.772 155.767L293.517 300.182H293.516Z" fill="#EC5242"/>
<path d="M370.634 154.171L295.297 111.062C294.557 110.689 293.781 110.392 292.981 110.174L208.56 254.234C209.259 255.084 210.104 255.805 211.054 256.363L286.392 299.474C288.529 300.716 291.022 301.07 293.337 300.36L372.594 155.947C372.06 155.238 371.346 154.704 370.634 154.172V154.171Z" fill="#EC5242"/>
<path fill-rule="evenodd" clip-rule="evenodd" d="M370.813 256.183C372.95 254.941 374.553 252.812 375.267 250.506L292.623 109.996C290.486 109.642 288.17 109.818 286.213 111.06L211.409 153.994L292.089 300.536C293.261 300.346 294.402 299.987 295.473 299.472L370.812 256.185L370.813 256.183Z" fill="#EC5242"/>
<path fill-rule="evenodd" clip-rule="evenodd" d="M370.813 256.183L295.653 299.294C294.591 299.833 293.448 300.194 292.269 300.358L293.694 303.02L377.046 254.943V253.877L374.909 250.328C374.553 252.812 372.95 254.941 370.813 256.183Z" fill="#EC5242"/>
<path d="M296.003 299.979L296.02 299.97L296.037 299.961L371.197 256.849L370.813 256.183L371.201 256.846C372.977 255.815 374.428 254.209 375.185 252.278L376.276 254.091V254.501L293.998 301.958L293.442 300.918C294.329 300.707 295.189 300.392 296.003 299.979Z" fill="#EC5242"/>
<path d="M296.003 299.979L296.02 299.97L296.037 299.961L371.197 256.849L370.813 256.183L371.201 256.846C372.977 255.815 374.428 254.209 375.185 252.278L376.276 254.091V254.501L293.998 301.958L293.442 300.918C294.329 300.707 295.189 300.392 296.003 299.979Z" fill="black" fill-opacity="0.2"/>
<path d="M296.003 299.979L296.02 299.97L296.037 299.961L371.197 256.849L370.813 256.183L371.201 256.846C372.977 255.815 374.428 254.209 375.185 252.278L376.276 254.091V254.501L293.998 301.958L293.442 300.918C294.329 300.707 295.189 300.392 296.003 299.979Z" stroke="#EC5242"/>
</g>
</g>
<defs>
<clipPath id="clip0_0_1">
<rect width="789" height="482" fill="white"/>
</clipPath>
</defs>
</svg>
