<svg width="512" height="314" viewBox="0 0 512 314" fill="none" xmlns="http://www.w3.org/2000/svg">
<rect width="512" height="314" fill="#E5E5E5"/>
<path d="M252.879 313.094C251.146 313.094 249.528 312.632 248.025 311.823L232.654 302.693C230.342 301.421 231.498 300.959 232.192 300.728C235.312 299.688 235.89 299.456 239.126 297.608C239.473 297.376 239.936 297.492 240.282 297.723L252.071 304.773C252.533 305.004 253.111 305.004 253.457 304.773L299.572 278.075C300.034 277.844 300.266 277.381 300.266 276.804V223.524C300.266 222.945 300.034 222.484 299.572 222.252L253.457 195.67C252.995 195.438 252.417 195.438 252.071 195.67L205.956 222.252C205.494 222.483 205.262 223.061 205.262 223.523V276.803C205.262 277.266 205.494 277.843 205.956 278.075L218.554 285.356C225.373 288.823 229.649 284.778 229.649 280.733V228.146C229.649 227.453 230.227 226.759 231.036 226.759H236.93C237.624 226.759 238.317 227.337 238.317 228.146V280.733C238.317 289.863 233.347 295.18 224.679 295.18C222.021 295.18 219.941 295.18 214.046 292.29L201.911 285.356C198.906 283.623 197.057 280.386 197.057 276.919V223.639C197.057 220.172 198.906 216.935 201.911 215.202L248.025 188.504C250.915 186.886 254.845 186.886 257.734 188.504L303.848 215.202C306.853 216.935 308.703 220.172 308.703 223.639V276.919C308.703 280.386 306.853 283.623 303.848 285.356L257.734 312.054C256.231 312.748 254.498 313.094 252.88 313.094H252.879ZM267.095 276.457C246.87 276.457 242.709 267.211 242.709 259.352C242.709 258.658 243.287 257.965 244.096 257.965H250.106C250.799 257.965 251.377 258.427 251.377 259.121C252.302 265.246 254.96 268.251 267.211 268.251C276.919 268.251 281.081 266.055 281.081 260.854C281.081 257.849 279.924 255.654 264.784 254.151C252.186 252.879 244.327 250.106 244.327 240.051C244.327 230.689 252.187 225.141 265.362 225.141C280.155 225.141 287.437 230.227 288.362 241.321C288.362 241.669 288.246 242.015 288.015 242.362C287.783 242.593 287.437 242.824 287.09 242.824H281.08C280.502 242.824 279.924 242.362 279.809 241.784C278.422 235.428 274.839 233.347 265.362 233.347C254.729 233.347 253.457 237.046 253.457 239.819C253.457 243.171 254.96 244.211 269.291 246.06C283.507 247.91 290.211 250.568 290.211 260.507C290.095 270.678 281.774 276.457 267.095 276.457Z" fill="#EC5242"/>
<path d="M109.797 104.712C109.797 102.632 108.641 100.666 106.792 99.6263L57.788 71.4263C56.978 70.9633 56.054 70.7322 55.13 70.6162H54.667C53.743 70.6162 52.818 70.9633 52.009 71.4263L3.005 99.6263C1.155 100.666 0 102.631 0 104.712L0.116 180.529C0.116 181.569 0.694 182.609 1.618 183.072C2.543 183.65 3.698 183.65 4.508 183.072L33.633 166.429C35.482 165.389 36.638 163.424 36.638 161.344V125.862C36.638 123.782 37.793 121.817 39.643 120.777L52.009 113.611C52.934 113.033 53.974 112.801 55.014 112.801C56.054 112.801 57.094 113.033 57.904 113.611L70.27 120.777C72.12 121.817 73.275 123.781 73.275 125.862V161.344C73.275 163.424 74.431 165.389 76.28 166.429L105.405 183.072C106.33 183.65 107.485 183.65 108.41 183.072C109.335 182.609 109.913 181.569 109.913 180.529L109.797 104.712ZM345.34 0.34725C344.416 -0.11575 343.26 -0.11575 342.45 0.34725C341.526 0.92525 340.948 1.84925 340.948 2.88925V78.0143C340.948 78.7073 340.602 79.4003 339.908 79.8633C339.215 80.2093 338.521 80.2093 337.828 79.8633L325.577 72.8133C324.679 72.3019 323.663 72.0329 322.63 72.0329C321.596 72.0329 320.58 72.3019 319.682 72.8133L270.678 101.129C268.829 102.169 267.673 104.134 267.673 106.214V162.73C267.673 164.81 268.829 166.776 270.678 167.816L319.682 196.132C320.58 196.644 321.596 196.913 322.63 196.913C323.663 196.913 324.679 196.644 325.577 196.132L374.581 167.816C376.43 166.776 377.586 164.811 377.586 162.73V21.8442C377.586 19.6482 376.43 17.6842 374.581 16.6432L345.341 0.34725H345.34ZM340.833 144.123C340.833 144.701 340.602 145.163 340.139 145.394L323.381 155.102C323.147 155.216 322.89 155.276 322.63 155.276C322.369 155.276 322.112 155.216 321.878 155.102L305.12 145.394C304.657 145.163 304.426 144.585 304.426 144.123V124.706C304.426 124.128 304.657 123.666 305.12 123.435L321.878 113.726C322.112 113.612 322.369 113.553 322.63 113.553C322.89 113.553 323.147 113.612 323.381 113.726L340.139 123.435C340.602 123.665 340.833 124.244 340.833 124.706V144.123ZM508.417 124.244C510.267 123.204 511.307 121.239 511.307 119.158V105.405C511.307 103.325 510.151 101.36 508.417 100.32L459.76 72.1203C458.862 71.609 457.846 71.3402 456.813 71.3402C455.78 71.3402 454.764 71.609 453.866 72.1203L404.862 100.435C403.012 101.475 401.857 103.44 401.857 105.521V162.037C401.857 164.117 403.012 166.082 404.862 167.122L453.519 194.86C455.369 195.9 457.564 195.9 459.298 194.86L488.769 178.45C489.694 177.987 490.272 176.947 490.272 175.907C490.272 174.867 489.694 173.827 488.769 173.364L439.534 145.048C438.61 144.471 438.032 143.546 438.032 142.506V124.823C438.032 123.783 438.61 122.743 439.534 122.28L454.906 113.496C455.356 113.213 455.877 113.063 456.409 113.063C456.94 113.063 457.461 113.213 457.911 113.496L473.282 122.28C474.207 122.858 474.785 123.782 474.785 124.823V138.692C474.785 139.732 475.363 140.772 476.287 141.234C477.212 141.812 478.367 141.812 479.292 141.234L508.417 124.244V124.244Z" fill="white"/>
<path d="M456.062 121.586C456.233 121.473 456.434 121.413 456.64 121.413C456.845 121.413 457.046 121.473 457.217 121.586L466.579 127.018C466.926 127.248 467.157 127.595 467.157 128.058V138.922C467.157 139.384 466.926 139.731 466.579 139.962L457.217 145.394C457.046 145.507 456.845 145.567 456.64 145.567C456.434 145.567 456.233 145.507 456.062 145.394L446.7 139.962C446.353 139.731 446.122 139.384 446.122 138.922V128.058C446.122 127.595 446.353 127.248 446.7 127.018L456.062 121.586V121.586Z" fill="#EC5242"/>
<mask id="mask0_0_1" style="mask-type:alpha" maskUnits="userSpaceOnUse" x="134" y="71" width="110" height="125">
<path d="M191.74 72.3513C190.842 71.84 189.826 71.5712 188.793 71.5712C187.76 71.5712 186.744 71.84 185.846 72.3513L137.189 100.434C135.339 101.474 134.299 103.439 134.299 105.519V161.805C134.299 163.885 135.455 165.85 137.189 166.89L185.846 194.975C186.744 195.486 187.76 195.755 188.793 195.755C189.826 195.755 190.842 195.486 191.74 194.975L240.398 166.89C242.247 165.85 243.288 163.885 243.288 161.805V105.52C243.288 103.44 242.131 101.475 240.398 100.435L191.74 72.3513Z" fill="white"/>
</mask>
<g mask="url(#mask0_0_1)">
<path d="M191.74 72.3513C190.842 71.84 189.826 71.5712 188.793 71.5712C187.76 71.5712 186.744 71.84 185.846 72.3513L137.189 100.434C135.339 101.474 134.299 103.439 134.299 105.519V161.805C134.299 163.885 135.455 165.85 137.189 166.89L185.846 194.975C186.744 195.486 187.76 195.755 188.793 195.755C189.826 195.755 190.842 195.486 191.74 194.975L240.398 166.89C242.247 165.85 243.288 163.885 243.288 161.805V105.52C243.288 103.44 242.131 101.475 240.398 100.435L191.74 72.3513Z" fill="#EC5242"/>
<path d="M185.73 72.3513L136.958 100.434C135.107 101.475 133.837 103.441 133.837 105.521V161.807C133.837 163.194 134.415 164.465 135.339 165.505L190.122 71.6573C188.735 71.4263 187.117 71.5413 185.73 72.3503V72.3513ZM190.469 195.554C190.931 195.438 191.394 195.207 191.856 194.976L240.629 166.891C242.479 165.851 243.634 163.886 243.634 161.806V105.52C243.634 104.018 242.94 102.515 241.9 101.475L190.47 195.554H190.469Z" fill="#EC5242"/>
<path d="M240.513 100.435L191.625 72.3513C191.145 72.1087 190.641 71.915 190.122 71.7733L135.339 165.621C135.793 166.175 136.341 166.645 136.958 167.008L185.846 195.093C187.233 195.902 188.851 196.133 190.353 195.67L241.785 101.592C241.438 101.13 240.975 100.782 240.513 100.436V100.435Z" fill="#EC5242"/>
<path fill-rule="evenodd" clip-rule="evenodd" d="M240.629 166.891C242.016 166.082 243.056 164.695 243.519 163.193L189.89 71.6573C188.503 71.4263 187 71.5413 185.73 72.3503L137.188 100.32L189.543 195.785C190.304 195.661 191.044 195.427 191.739 195.092L240.628 166.892L240.629 166.891Z" fill="#EC5242"/>
<path fill-rule="evenodd" clip-rule="evenodd" d="M240.629 166.891L191.856 194.976C191.167 195.327 190.425 195.562 189.66 195.669L190.585 197.403L244.674 166.083V165.389L243.287 163.077C243.056 164.695 242.016 166.082 240.629 166.891V166.891Z" fill="#EC5242"/>
<path d="M192.083 195.422L192.094 195.416L192.105 195.41L240.878 167.325L240.629 166.891L240.881 167.323C242.033 166.651 242.975 165.605 243.466 164.347L244.174 165.528V165.795L190.782 196.711L190.421 196.034C190.997 195.896 191.555 195.691 192.083 195.422Z" fill="#EC5242"/>
<path d="M192.083 195.422L192.094 195.416L192.105 195.41L240.878 167.325L240.629 166.891L240.881 167.323C242.033 166.651 242.975 165.605 243.466 164.347L244.174 165.528V165.795L190.782 196.711L190.421 196.034C190.997 195.896 191.555 195.691 192.083 195.422Z" fill="black" fill-opacity="0.2"/>
<path d="M192.083 195.422L192.094 195.416L192.105 195.41L240.878 167.325L240.629 166.891L240.881 167.323C242.033 166.651 242.975 165.605 243.466 164.347L244.174 165.528V165.795L190.782 196.711L190.421 196.034C190.997 195.896 191.555 195.691 192.083 195.422Z" stroke="#EC5242"/>
</g>
</svg>
