<svg width="339" height="296" viewBox="0 0 339 296" fill="none" xmlns="http://www.w3.org/2000/svg">
<g clip-path="url(#clip0_0_1)">
<path d="M212 175.096C212 193.376 199.239 208.194 183.499 208.194C167.76 208.194 155 193.376 155 175.096C155 156.818 167.76 142 183.499 142C199.239 142 212 156.818 212 175.096Z" fill="#EC5242"/>
<path d="M183.5 265.92C205.809 284.821 227.799 296 245.522 296C251.331 296 256.831 294.934 261.404 292.543C277.287 284.552 283.097 264.584 277.596 236.097C276.682 231.037 275.458 225.985 273.925 220.654C280.031 219.06 285.532 217.455 291.032 215.862C321.895 205.479 339 191.101 339 175.399C339 159.426 321.895 145.049 291.032 134.936C285.532 133.073 280.031 131.479 273.925 130.143C275.458 124.823 276.682 119.761 277.596 114.699C282.787 85.685 276.991 65.4484 261.096 57.4573C256.511 55.0662 251.01 54 245.213 54C227.799 54 205.489 65.1794 183.191 84.0806C161.191 65.1794 139.19 54 121.478 54C115.669 54 110.169 55.0662 105.595 57.4573C89.713 65.4484 83.9041 85.4159 89.4042 113.902C90.3189 118.964 91.5425 124.015 93.0749 129.346C86.9689 130.94 81.4688 132.545 75.9686 134.139C45.1062 144.521 28 158.899 28 174.601C28 190.574 45.1062 204.951 75.9686 215.064C81.4688 216.928 86.9689 218.521 93.0749 219.858C91.5425 225.177 90.3189 230.239 89.4042 235.301C84.2129 263.788 90.01 284.024 105.595 291.746C110.181 294.147 115.681 295.203 121.478 295.203C139.202 295.731 161.203 284.552 183.5 265.92ZM166.382 229.981C171.882 230.25 177.692 230.25 183.488 230.25C189.285 230.25 195.095 230.25 200.595 229.981C195.095 236.368 189.285 242.226 183.488 247.815C177.68 242.226 171.882 236.368 166.382 229.981ZM128.498 202.561C131.552 207.084 134.308 211.349 137.67 215.603C128.202 214.537 119.34 213.2 110.787 211.607C113.542 204.423 116.596 196.961 120.255 189.508C122.702 193.762 125.446 198.296 128.498 202.55V202.561ZM110.775 138.393C119.328 136.799 128.19 135.464 137.658 134.398C134.605 138.662 131.552 142.917 128.486 147.44C125.422 151.963 122.678 156.228 120.243 160.751C116.275 153.029 113.21 145.577 110.775 138.383V138.393ZM127.585 174.87C131.552 167.687 135.828 160.493 140.723 153.31C145.308 146.384 150.499 139.47 155.691 132.545C164.861 132.017 174.021 131.748 183.5 131.748C193.277 131.748 202.447 132.017 211.309 132.545C216.81 139.47 221.692 146.384 226.277 153.31C231.172 160.493 235.449 167.687 239.416 174.87C235.449 182.055 231.172 189.249 226.277 196.432C221.692 203.357 216.501 210.272 211.309 217.197C202.139 217.725 192.98 217.994 183.5 217.994C173.724 217.994 164.552 217.725 155.691 217.197C150.191 210.272 145.308 203.357 140.723 196.432C135.828 189.239 131.552 182.055 127.585 174.87ZM247.055 160.493L238.81 147.181C235.757 142.658 233.002 138.393 229.639 134.139C239.108 135.205 247.97 136.54 256.522 138.134C253.778 145.587 250.713 153.04 247.055 160.503V160.493ZM247.055 189.249C250.725 196.701 253.778 204.154 256.522 211.349C247.97 212.942 239.108 214.277 229.639 215.343C232.692 211.078 235.745 206.825 238.81 202.301C241.567 198.306 244.311 193.783 247.055 189.26V189.249ZM254.076 281.633C251.628 282.968 248.575 283.496 245.213 283.496C230.246 283.496 211.607 272.845 193.277 256.872C202.139 248.623 210.692 239.296 219.245 228.915C233.607 227.848 247.351 225.985 260.193 223.325C261.726 228.117 262.64 232.909 263.555 237.703C267.831 260.331 264.47 276.57 254.088 281.633H254.076ZM269.969 141.323C304.193 149.842 324.662 162.883 324.662 174.87C324.662 185.253 310.609 195.635 285.864 203.896C280.97 205.489 275.482 207.094 269.981 208.419C266.014 197.498 261.119 186.319 255.013 174.87C261.119 163.422 266.322 152.244 269.981 141.323H269.969ZM245.522 66.2454C248.883 66.2454 251.628 66.7733 254.384 68.1086C264.47 73.1705 268.129 89.1423 263.851 112.039C262.938 116.563 261.714 121.355 260.49 126.417C247.66 124.015 233.904 122.152 219.542 120.827C211.297 110.445 202.435 101.129 193.573 92.8687C211.904 77.1556 230.542 66.2454 245.51 66.2454H245.522ZM200.606 119.761C195.107 119.492 189.297 119.492 183.5 119.492C177.704 119.492 171.894 119.492 166.394 119.761C171.894 113.374 177.704 107.516 183.5 101.926C189.309 107.516 195.107 113.644 200.606 119.761ZM112.913 68.1086C115.36 66.7733 118.413 66.2454 121.775 66.2454C136.743 66.2454 155.382 76.8969 173.712 92.8687C164.849 101.119 156.297 110.435 147.744 120.827C133.381 121.893 119.637 123.757 106.795 126.417C105.263 121.624 104.348 116.832 103.434 112.039C99.1571 89.4114 102.519 73.4396 112.901 68.1086H112.913ZM97.0307 208.419C62.8064 199.9 42.3383 186.857 42.3383 174.87C42.3383 164.489 56.3916 154.106 81.1361 145.856C86.0304 144.262 91.5186 142.658 97.0188 141.333C100.986 152.254 105.88 163.433 111.986 174.881C105.88 186.33 100.678 197.777 97.0188 208.429L97.0307 208.419ZM103.445 237.703C104.36 233.179 105.584 228.386 106.807 223.325C119.637 225.726 133.393 227.59 147.756 228.915C155.999 239.296 164.861 248.613 173.724 256.872C155.394 272.576 136.755 283.496 121.787 283.496C118.425 283.496 115.681 282.968 112.925 281.633C102.531 276.57 99.1809 260.331 103.457 237.703H103.445Z" fill="white"/>
</g>
<defs>
<clipPath id="clip0_0_1">
<rect width="339" height="296" fill="white"/>
</clipPath>
</defs>
</svg>
