<svg width="339" height="237" viewBox="0 0 339 237" fill="none" xmlns="http://www.w3.org/2000/svg">
<rect width="339" height="237" fill="#E5E5E5"/>
<path d="M192.572 118.409C192.572 127.618 181.893 135.083 168.722 135.083C155.551 135.083 144.873 127.618 144.873 118.409C144.873 109.201 155.551 101.736 168.722 101.736C181.893 101.736 192.572 109.201 192.572 118.409V118.409Z" fill="#EC5242"/>
<path d="M168.722 179.723C187.447 192.451 205.903 199.979 220.779 199.979C225.654 199.979 230.271 199.261 234.109 197.651C247.44 192.27 252.316 178.823 247.699 159.64C246.932 156.232 245.905 152.83 244.618 149.24C249.743 148.167 254.36 147.086 258.976 146.013C284.88 139.021 299.237 129.339 299.237 118.765C299.237 108.009 284.88 98.3271 258.976 91.5169C254.36 90.2621 249.743 89.1887 244.618 88.2895C245.905 84.7066 246.932 81.298 247.699 77.8894C252.056 58.3508 247.191 44.7233 233.85 39.342C230.002 37.7318 225.385 37.0138 220.519 37.0138C205.903 37.0138 187.178 44.5421 168.463 57.2704C149.998 44.5421 131.532 37.0138 116.666 37.0138C111.79 37.0138 107.174 37.7318 103.335 39.342C90.0045 44.7233 85.1289 58.1696 89.7453 77.3526C90.513 80.7612 91.54 84.1629 92.8262 87.7527C87.7013 88.8262 83.0849 89.9066 78.4685 90.9801C52.5649 97.9716 38.2073 107.654 38.2073 118.228C38.2073 128.984 52.5649 138.666 78.4685 145.476C83.0849 146.731 87.7013 147.804 92.8262 148.704C91.54 152.286 90.513 155.695 89.7453 159.104C85.3881 178.287 90.2538 191.914 103.335 197.114C107.184 198.731 111.8 199.442 116.666 199.442C131.542 199.798 150.008 192.27 168.722 179.723ZM154.355 155.521C158.971 155.702 163.847 155.702 168.712 155.702C173.578 155.702 178.454 155.702 183.07 155.521C178.454 159.822 173.578 163.767 168.712 167.531C163.837 163.767 158.971 159.822 154.355 155.521ZM122.558 137.056C125.121 140.102 127.434 142.974 130.256 145.839C122.309 145.121 114.871 144.221 107.692 143.148C110.005 138.31 112.568 133.285 115.639 128.266C117.693 131.131 119.996 134.184 122.558 137.049V137.056ZM107.682 93.845C114.861 92.7716 122.299 91.8724 130.246 91.1544C127.683 94.0263 125.121 96.8912 122.548 99.9373C119.976 102.983 117.673 105.855 115.629 108.901C112.299 103.701 109.726 98.6826 107.682 93.8381V93.845ZM121.791 118.409C125.121 113.572 128.71 108.727 132.818 103.89C136.667 99.2263 141.024 94.57 145.381 89.9066C153.078 89.5511 160.766 89.3699 168.722 89.3699C176.928 89.3699 184.625 89.5511 192.063 89.9066C196.68 94.57 200.778 99.2263 204.626 103.89C208.734 108.727 212.324 113.572 215.654 118.409C212.324 123.247 208.734 128.092 204.626 132.929C200.778 137.592 196.421 142.249 192.063 146.912C184.366 147.268 176.679 147.449 168.722 147.449C160.517 147.449 152.819 147.268 145.381 146.912C140.765 142.249 136.667 137.592 132.818 132.929C128.71 128.085 125.121 123.247 121.791 118.409ZM222.065 108.727L215.145 99.7631C212.583 96.7169 210.27 93.845 207.448 90.9801C215.395 91.6981 222.833 92.5973 230.011 93.6708C227.708 98.6896 225.136 103.708 222.065 108.734V108.727ZM222.065 128.092C225.146 133.11 227.708 138.129 230.011 142.974C222.833 144.047 215.395 144.946 207.448 145.664C210.01 142.792 212.573 139.928 215.145 136.881C217.459 134.191 219.762 131.145 222.065 128.099V128.092ZM227.958 190.304C225.904 191.203 223.341 191.559 220.519 191.559C207.957 191.559 192.313 184.386 176.928 173.63C184.366 168.075 191.545 161.794 198.724 154.803C210.778 154.085 222.314 152.83 233.092 151.039C234.379 154.266 235.146 157.493 235.914 160.721C239.503 175.959 236.682 186.895 227.968 190.304H227.958ZM241.298 95.8177C270.023 101.555 287.203 110.337 287.203 118.409C287.203 125.401 275.408 132.392 254.639 137.955C250.531 139.028 245.925 140.109 241.308 141.001C237.978 133.647 233.87 126.119 228.745 118.409C233.87 110.7 238.237 103.172 241.308 95.8177H241.298ZM220.779 45.26C223.6 45.26 225.904 45.6155 228.217 46.5147C236.682 49.9234 239.753 60.679 236.163 76.0979C235.396 79.1441 234.369 82.3714 233.342 85.7801C222.573 84.1629 211.027 82.9082 198.973 82.0159C192.053 75.0244 184.615 68.7509 177.177 63.1884C192.562 52.607 208.206 45.26 220.769 45.26H220.779ZM183.08 81.298C178.464 81.1167 173.588 81.1167 168.722 81.1167C163.857 81.1167 158.981 81.1167 154.365 81.298C158.981 76.9971 163.857 73.0518 168.722 69.2876C173.598 73.0518 178.464 77.1784 183.08 81.298ZM109.477 46.5147C111.531 45.6155 114.093 45.26 116.915 45.26C129.478 45.26 145.122 52.4328 160.507 63.1884C153.068 68.7439 145.89 75.0175 138.711 82.0159C126.656 82.7339 115.12 83.9886 104.342 85.7801C103.056 82.5527 102.288 79.3253 101.521 76.0979C97.9311 60.8602 100.753 50.1046 109.467 46.5147H109.477ZM96.1464 141.001C67.4211 135.264 50.2418 126.481 50.2418 118.409C50.2418 111.418 62.037 104.426 82.8057 98.8708C86.9136 97.7974 91.52 96.7169 96.1364 95.8247C99.4666 103.179 103.574 110.707 108.699 118.416C103.574 126.126 99.2074 133.835 96.1364 141.008L96.1464 141.001ZM101.53 160.721C102.298 157.675 103.325 154.447 104.352 151.039C115.12 152.656 126.666 153.911 138.721 154.803C145.64 161.794 153.078 168.068 160.517 173.63C145.132 184.205 129.488 191.559 116.925 191.559C114.103 191.559 111.8 191.203 109.487 190.304C100.763 186.895 97.9511 175.959 101.54 160.721H101.53Z" fill="white"/>
</svg>
