<svg width="40" height="40" viewBox="0 0 40 40" fill="none" xmlns="http://www.w3.org/2000/svg">
<path d="M40 4.6795C39.7325 5.35735 39.2345 6.21357 38.5061 7.24811C37.7778 8.28266 36.8785 9.1924 35.8082 9.97725C35.838 10.2627 35.8603 10.5302 35.8751 10.78C35.9906 14.6248 35.2231 18.614 34.1583 21.9374C32.0944 28.1164 28.9318 33.0894 24.4147 36.4661C19.7042 39.7085 14.2183 40.3981 9.16387 39.8107C5.80833 39.3482 2.5011 38.0333 0 35.5564C4.57443 36.2126 8.8435 34.3452 12.2185 31.3288C8.46943 31.4427 5.74547 28.1882 4.45933 24.4257C5.0391 24.6081 5.6456 24.5861 6.19847 24.5328C6.879 24.456 7.525 24.3794 8.16057 24.2117C5.77 23.2861 3.67827 21.5847 2.58643 19.0209C1.946 17.3965 1.65683 15.8496 1.65 14.0977C2.77017 14.8055 4.1176 15.4953 5.35123 15.4355C3.48817 13.5416 1.99457 11.1212 1.7169 8.34506C1.5416 6.03037 2.02427 3.91744 2.72027 1.95028C5.50717 5.62576 8.6341 8.6505 12.2409 10.5123C14.7075 11.7245 17.1671 12.3727 19.7102 12.3853C19.4167 9.65941 19.6449 7.02315 20.7136 4.78642C21.9713 2.38165 23.8062 0.986418 25.8641 0.291323C28.8087 -0.614777 31.6807 0.665131 33.4896 3.1275C35.4403 2.87466 37.3089 1.83616 38.7961 0.772933C38.1642 3.06938 36.9337 5.35271 35.1395 6.4453C36.8477 6.06577 38.4778 5.45892 40 4.6795Z" fill="white"/>
</svg>
