<svg width="23" height="23" viewBox="0 0 23 23" fill="none" xmlns="http://www.w3.org/2000/svg">
<g clip-path="url(#clip0_0_1)">
<path d="M11.0449 12.1585V8.92944H9.02814V13.9199H14.7422V12.1585H11.0449Z" fill="#504F4F"/>
<path d="M22.9981 8.31871L23 0.67128L19.9639 3.70869L19.6236 3.3683C17.4524 1.19623 14.5656 2.93616e-10 11.4952 2.93616e-10C5.15667 -4.49405e-05 0 5.15889 0 11.5C0 17.8411 5.15667 23 11.4952 23C17.8337 23 22.9904 17.8411 22.9904 11.5H20.7655C20.7655 16.6138 16.6068 20.7742 11.4951 20.7742C6.38349 20.7742 2.22488 16.6138 2.22488 11.5C2.22488 6.38617 6.38353 2.22578 11.4952 2.22578C13.9714 2.22578 16.2994 3.19043 18.0504 4.94214L18.3907 5.28251L15.3548 8.31961L22.9981 8.31871Z" fill="#504F4F"/>
</g>
<defs>
<clipPath id="clip0_0_1">
<rect width="23" height="23" fill="white"/>
</clipPath>
</defs>
</svg>
